<?xml version="1.0" encoding="UTF-8"?>
<!DOCTYPE svg PUBLIC "-//W3C//DTD SVG 1.1//EN" "http://www.w3.org/Graphics/SVG/1.1/DTD/svg11.dtd">
<svg version="1.1" xmlns="http://www.w3.org/2000/svg" xmlns:xlink="http://www.w3.org/1999/xlink" x="0" y="0" width="500" height="500" viewBox="0, 0, 500, 500">
  <g id="Layer_1">
    <path d="M205.28,4.207 C206.948,1.227 210.578,0.443 213.716,0.228 C222.395,-0.171 230.86,2.311 239.04,4.921 C253.993,9.527 268.114,16.994 279.895,27.342 C294.037,22.079 309.162,19.669 324.238,19.882 C339.292,19.683 354.432,22.022 368.538,27.363 C379.028,18.278 391.237,11.132 404.387,6.661 C414.157,3.287 424.277,-0.143 434.746,0.221 C437.698,0.457 441.192,0.97 442.918,3.702 C448.659,11.86 450.948,22.022 450.97,31.884 C451.269,43.986 448.531,55.925 445.107,67.456 C442.754,75.222 439.973,82.86 436.835,90.347 C436.093,91.395 437.042,92.459 437.484,93.393 C443.061,103.662 451.134,112.704 461.282,118.616 C465.717,121.319 470.617,123.137 475.088,125.783 C475.309,128.037 474.974,130.29 474.403,132.465 C472.556,140.802 468.506,148.49 463.449,155.314 C468.306,154.616 472.948,153.004 477.548,151.363 C479.745,150.437 482.184,153.104 480.978,155.165 C474.346,169.206 464.718,181.936 452.361,191.421 C454.913,191.271 457.295,190.172 459.848,189.987 C462.323,190.308 463.008,193.724 461.04,195.151 C444.686,211.453 425.846,225.395 405.051,235.507 C404.316,235.764 404.167,236.185 404.594,236.769 C422.765,256.53 438.454,278.895 448.909,303.711 C459.685,329.049 465.133,356.654 464.684,384.174 C464.634,392.519 462.665,400.783 463.385,409.149 C463.749,420.009 466.43,430.879 471.75,440.398 C474.104,444.87 477.442,448.742 479.816,453.214 C483.61,459.975 485.885,467.904 484.622,475.677 C483.838,481.019 481.363,485.982 478.097,490.233 C476.236,492.829 473.134,494.005 470.41,495.445 C459.328,500.809 446.156,501.122 434.632,497 C426.879,493.17 421.068,486.261 417.06,478.73 C409.721,464.959 406.591,449.398 405.079,433.988 C395.616,438.088 385.71,441.396 375.42,442.524 C357.22,444.892 338.508,439.971 323.239,429.959 C322.327,431.398 321.513,432.932 321.264,434.651 C319.039,446.574 316.729,458.484 314.432,470.393 C313.933,474.216 311.145,477.153 308.535,479.764 C301.86,485.94 292.375,487.958 283.51,487.686 C276.685,487.273 269.747,485.861 263.756,482.46 C259.706,480.227 256.426,476.397 255.42,471.819 C254.664,468.089 254.893,464.267 254.849,460.488 C255.434,445.633 256.24,430.236 262.652,416.551 C264.306,412.771 266.916,409.576 269.376,406.303 C253.993,398.273 237.934,391.492 221.303,386.499 C208.417,382.549 195.131,380.103 181.803,378.227 C159.531,375.46 136.854,376.024 114.697,379.496 C98.465,382.585 81.878,384.082 65.369,382.991 C53.851,381.879 42.042,379.033 32.657,371.959 C26.609,367.309 21.959,360.863 19.635,353.589 C15.927,341.893 14.087,329.47 15.506,317.233 C16.84,303.661 23.25,290.825 32.643,281.026 C41.428,271.734 52.476,264.91 63.971,259.461 C77.806,253.072 92.51,248.735 107.373,245.484 C123.169,242.974 139.164,241.661 155.16,241.918 C186.168,241.797 217.21,247.923 245.685,260.246 C252.025,262.806 258.008,266.293 264.249,268.981 C266.395,261.358 267.986,253.577 269.02,245.734 C240.622,236.54 214.428,220.809 192.764,200.299 C190.724,198.331 188.507,196.512 186.752,194.281 C185.767,193.182 186.637,191.749 186.987,190.587 C190.147,189.167 193.234,191.485 196.458,191.449 C184.406,182.813 175.214,170.675 168.595,157.51 C168.04,156.356 167.383,155.243 167.09,153.995 C167.298,152.961 168.06,152.141 168.581,151.25 C171.369,151.092 173.837,152.505 176.44,153.275 C179.221,154.173 182.073,154.858 184.976,155.271 C178.715,147.213 174.208,137.572 173.224,127.345 C173.009,125.79 174.536,125.041 175.691,124.45 C180.441,122.125 185.376,120.106 189.74,117.09 C199.317,110.786 206.705,101.643 212.125,91.631 C205.957,76.456 200.159,60.909 198.048,44.572 C196.422,30.879 197.128,15.895 205.28,4.207 z" fill="#010000"/>
    <path d="M412.938,16.41 C419.998,11.71 427.65,7.424 436.137,6.09 C436.849,6.326 437.57,6.554 438.304,6.789 C445.143,17.529 446.163,30.829 444.672,43.195 C442.932,57.914 438.062,72.027 432.656,85.755 C432.471,85.684 432.1,85.54 431.922,85.47 C430.074,82.232 427.992,79.144 425.967,76.027 L425.981,75.414 C430.445,63.64 434.738,51.645 436.329,39.094 C436.963,32.333 437.149,24.91 433.405,18.941 C430.395,17.001 426.266,18.214 423.193,19.605 C415.776,23.476 410.749,30.515 406.242,37.326 C404.181,40.513 402.255,43.794 400.501,47.16 C400.337,47.174 400.002,47.196 399.831,47.21 C396.771,44.542 393.377,42.311 390.096,39.936 C395.602,30.323 403.668,22.393 412.938,16.41 z" fill="#FBFBFB"/>
    <path d="M210.635,6.504 C215.62,5.805 220.327,8.186 224.769,10.12 C238.283,16.88 250.863,26.607 258.358,39.972 C254.957,42.353 251.562,44.756 248.346,47.388 C243.055,39.037 238.226,30.08 230.731,23.412 C227.351,20.559 223.272,17.957 218.693,18 C217.303,18.064 215.506,17.85 214.785,19.347 C211.862,24.432 211.526,30.515 211.89,36.242 C212.931,49.605 217.431,62.379 222.266,74.78 C223.107,76.363 221.267,77.54 220.662,78.845 C218.9,81.12 217.938,83.972 215.955,86.055 C210.335,72.305 205.515,58.064 203.725,43.259 C202.241,30.75 203.147,17.115 210.635,6.504 z" fill="#FBFBFB"/>
    <path d="M224.298,7.024 C229.084,7.288 233.905,8.472 238.169,10.676 C236.436,10.291 234.703,9.941 232.971,9.606 C231.872,9.734 230.774,9.863 229.669,9.898 C227.8,9.092 226.067,8.016 224.298,7.024 z" fill="#763018"/>
    <path d="M415.911,8.8 C418.493,7.474 421.395,7.039 424.269,6.989 C421.104,8.665 418.116,10.74 414.735,11.966 C415.891,11.061 417.017,10.105 418.137,9.142 C417.58,9.056 416.468,8.886 415.911,8.8 z" fill="#6E2E17"/>
    <path d="M403.04,13.193 C407.29,11.624 411.54,10.012 415.911,8.8 C416.468,8.886 417.58,9.056 418.137,9.142 C417.017,10.105 415.891,11.061 414.735,11.966 C404.123,18.669 394.125,27.028 388.106,38.252 C383.157,36.249 378.785,32.983 373.722,31.2 C373.736,30.986 373.772,30.551 373.786,30.33 C382.53,23.099 392.357,17.073 403.04,13.193 z" fill="#D14302"/>
    <path d="M229.669,9.898 C230.774,9.863 231.872,9.734 232.971,9.606 C234.703,9.941 236.436,10.291 238.169,10.676 C251.02,14.462 263.029,20.91 273.484,29.274 C274.119,29.759 274.51,30.473 274.931,31.143 C269.761,32.854 265.39,36.27 260.355,38.246 C253.373,25.923 242.213,16.266 229.669,9.898 z" fill="#D14302"/>
    <path d="M214.6,30.444 C214.628,27.056 215.727,23.812 217.068,20.738 C222.366,20.375 227.03,23.526 230.567,27.156 C236.415,32.947 240.758,40.014 244.851,47.096 C245.336,48.044 246.17,49.535 244.973,50.319 C237.285,56.673 231.038,64.524 224.991,72.397 C223.7,72.213 223.692,70.537 223.151,69.603 C218.651,57.029 214.008,43.993 214.6,30.444 z" fill="#D24300"/>
    <path d="M419.314,25.68 C422.594,22.664 426.83,20.431 431.409,20.724 C435.081,28.39 434.104,37.298 432.499,45.37 C430.944,53.364 428.349,61.102 425.604,68.753 C424.883,69.902 424.37,71.763 422.658,71.449 C416.817,63.462 410.257,55.939 402.683,49.549 C402.818,49.121 403.104,48.258 403.239,47.831 C407.432,39.722 412.453,31.82 419.314,25.68 z" fill="#D24300"/>
    <path d="M282.64,32.441 C296.326,27.242 311.059,25.174 325.657,25.644 C339.477,25.352 353.363,27.719 366.292,32.619 C368.467,33.489 370.956,32.69 373.088,33.782 C382.658,37.96 391.544,43.652 399.545,50.355 C407.739,57.436 415.041,65.494 421.403,74.252 C424.419,78.524 427.4,82.852 429.896,87.46 C431.03,89.17 430.589,91.282 430.994,93.193 C437.192,105.943 446.927,117.226 459.413,124.143 C461.431,125.363 463.92,125.897 465.51,127.751 C453.551,129.613 441.571,132.601 430.859,138.37 C428.214,140.046 424.883,142.008 424.263,145.287 C426.744,151.471 429.703,157.732 429.689,164.556 C429.639,170.49 430.039,176.466 429.318,182.378 C427.322,194.059 422.494,205.155 415.983,215.018 C411.918,221.023 406.969,226.443 401.214,230.864 L402.105,230.572 C400.337,231.613 398.483,232.497 396.693,233.495 C396.636,233.902 396.508,234.722 396.45,235.129 C396.087,235.257 395.352,235.514 394.989,235.642 C384.085,239.885 373.088,244.114 361.549,246.289 C352.321,248.072 342.951,249.348 333.537,249.306 C326.142,249.334 318.754,249.392 311.365,249.278 C300.07,249.049 288.888,246.967 277.955,244.214 C276.186,243.844 274.782,242.695 273.391,241.639 C273.056,241.49 272.393,241.198 272.065,241.055 C264.556,238.345 256.911,235.849 249.822,232.134 C246.206,230.693 243.518,227.798 240.786,225.145 C231.152,215.411 224.705,202.888 220.94,189.801 C216.683,175.161 217.089,158.616 224.741,145.137 C223.407,142.92 221.738,140.852 219.492,139.511 C214.408,136.316 208.766,134.077 203.019,132.401 C203.425,132.409 203.839,132.429 204.252,132.444 C197.92,130.904 191.644,129.1 185.204,128.037 C184.434,127.716 183.707,127.316 182.973,126.945 C187.415,125.526 191.366,122.966 195.153,120.314 C204.374,113.56 211.534,104.368 216.925,94.363 C217.923,92.943 217.745,91.175 217.731,89.541 C221.674,81.305 227.087,73.846 232.828,66.771 C244.245,52.715 258.793,41.07 275.41,33.746 C277.685,32.648 280.351,33.539 282.64,32.441 z" fill="#D24300"/>
    <path d="M399.545,50.355 C400.658,49.356 401.848,48.429 403.239,47.831 C403.104,48.258 402.818,49.121 402.683,49.549 C410.256,55.939 416.817,63.462 422.658,71.449 L422.501,71.848 C422.152,72.662 421.766,73.453 421.403,74.252 C415.041,65.494 407.739,57.436 399.545,50.355 z" fill="#110000"/>
    <path d="M422.658,71.449 C424.369,71.763 424.883,69.902 425.604,68.753 C425.332,70.108 425.069,71.471 424.819,72.84 C423.87,72.84 422.665,73.147 422.501,71.848 L422.658,71.449 z" fill="#57200F"/>
    <path d="M261.439,99.218 C270.296,98.064 279.503,101.879 285.636,108.268 C293.137,116.762 296.953,128.372 295.947,139.661 L295.106,138.356 C293.131,132.052 288.93,126.268 283.019,123.159 C278.19,120.527 272.3,120.214 267.087,121.776 C260.383,123.929 255.527,129.727 252.668,135.953 C252.047,137.043 251.363,138.092 250.685,139.148 C250.728,135.496 250.906,131.845 250.749,128.194 C251.363,122.902 254.001,118.138 257.168,113.952 C253.694,113.361 250.114,112.776 246.998,111.036 C246.934,110.679 246.813,109.966 246.755,109.603 C251.718,104.403 259.428,104.895 266.01,105.202 C263.949,103.683 262.281,101.658 261.439,99.218 z" fill="#FBFBFB"/>
    <path d="M375.492,100.367 C379.235,99.426 383.257,98.292 387.094,99.298 C386.188,101.622 384.634,103.583 382.766,105.209 C389.319,104.782 396.757,104.603 401.856,109.495 C401.77,109.902 401.606,110.715 401.521,111.121 C401.092,111.321 400.23,111.72 399.802,111.92 C397.042,112.847 394.203,113.524 391.323,113.91 C392.863,116.412 394.846,118.666 395.858,121.461 C398.811,129.057 399.132,137.414 398.304,145.438 C398.254,145.187 398.148,144.702 398.09,144.453 C397.049,137.272 393.818,130.29 388.164,125.598 C382.915,120.941 375.163,119.715 368.559,121.818 C361.185,124.314 355.687,130.96 353.462,138.284 L352.343,139.012 C352.136,133.136 352.906,127.217 354.889,121.676 C358.362,112.169 365.478,103.327 375.492,100.367 z" fill="#FBFBFB"/>
    <path d="M267.087,121.776 C272.3,120.214 278.19,120.527 283.019,123.159 C288.93,126.268 293.131,132.052 295.106,138.356 C297.074,146.414 296.867,155.528 292.361,162.745 C288.994,167.929 283.824,172.344 277.599,173.407 C273.462,173.728 269.034,174.027 265.197,172.137 C261.025,170.219 257.573,166.953 254.971,163.209 C252.917,160.363 252.139,156.897 250.67,153.76 C249.964,147.748 250.513,141.637 252.668,135.953 C255.527,129.727 260.383,123.929 267.087,121.776 z" fill="#000000"/>
    <path d="M368.559,121.818 C375.163,119.715 382.915,120.941 388.164,125.598 C393.818,130.29 397.049,137.272 398.09,144.453 C398.326,150.928 397.156,157.668 393.562,163.159 C389.454,168.957 383.079,174.07 375.584,173.621 C365.921,174.491 357.556,167.039 354.011,158.595 C351.808,152.056 351.601,144.924 353.462,138.284 C355.687,130.96 361.185,124.315 368.559,121.818 z" fill="#000000"/>
    <path d="M354.105,121.369 L354.889,121.676 C352.906,127.217 352.136,133.136 352.343,139.012 L353.462,138.284 C351.601,144.924 351.808,152.056 354.011,158.595 C354.004,159.051 353.983,159.964 353.976,160.421 C350.325,153.032 351.85,144.638 351.594,136.73 C351.437,131.509 352.285,126.268 354.105,121.369 z" fill="#B15631"/>
    <path d="M262.987,126.846 C267.771,123.281 274.354,122.674 279.902,124.656 C287.718,127.737 292.91,135.917 293.359,144.175 C291.02,137.043 284.723,131.232 277.25,129.998 C272.87,129.413 268.214,129.585 264.17,131.531 C259.67,133.542 256.098,137.286 253.894,141.651 C254.943,135.824 258.244,130.405 262.987,126.846 z" fill="#FBFBFB"/>
    <path d="M360.401,130.825 C363.924,126.204 369.657,123.209 375.534,123.58 C385.425,123.508 393.049,132.637 394.646,141.8 C391.922,136.188 386.773,131.695 380.647,130.254 C374.336,128.885 367.254,129.855 362.198,134.105 C359.032,136.865 356.158,140.31 355.224,144.503 C355.059,139.483 357.378,134.712 360.401,130.825 z" fill="#FBFBFB"/>
    <path d="M249.365,129.292 C249.415,127.723 249.872,126.233 250.449,124.792 C250.578,125.919 250.656,127.06 250.749,128.194 C250.906,131.845 250.728,135.496 250.685,139.148 C251.363,138.092 252.047,137.043 252.668,135.953 C250.513,141.637 249.964,147.748 250.67,153.76 C250.67,154.145 250.678,154.901 250.678,155.279 C250.379,154.266 250.072,153.267 249.858,152.241 C250.884,149.274 250.128,146.137 249.936,143.105 C249.651,138.406 249.593,133.656 250.478,129.014 L249.365,129.292 z" fill="#FFE7D4"/>
    <path d="M430.859,138.37 C441.571,132.601 453.551,129.613 465.51,127.751 C466.858,127.68 468.042,128.55 469.29,128.95 C467.493,139.454 461.98,149.032 454.72,156.719 C452.916,158.031 453.879,161.19 456.019,161.405 C461.645,161.797 467.193,160.435 472.599,159.037 C465.967,170.989 456.86,181.779 445.315,189.232 C443.824,190.222 442.155,190.992 440.914,192.305 C440.394,193.653 440.886,195.022 441.727,196.113 C444.602,196.933 447.575,197.304 450.571,197.254 C440.237,207.181 428.563,215.66 416.304,223.041 C411.647,225.686 407.04,228.476 402.105,230.572 L401.214,230.864 C406.969,226.443 411.918,221.023 415.983,215.018 C422.494,205.155 427.322,194.059 429.318,182.378 C430.039,176.466 429.639,170.49 429.689,164.557 C429.703,157.732 426.744,151.471 424.263,145.287 C424.883,142.008 428.214,140.046 430.859,138.37 z" fill="#FBFBFB"/>
    <path d="M179.1,129.228 C180.911,128.037 183.043,127.252 185.204,128.037 C191.644,129.1 197.92,130.904 204.252,132.444 C203.839,132.429 203.425,132.409 203.019,132.401 C208.766,134.077 214.408,136.316 219.492,139.511 C221.738,140.852 223.407,142.92 224.741,145.137 C217.089,158.616 216.683,175.161 220.94,189.801 C224.705,202.888 231.152,215.411 240.786,225.145 C243.518,227.798 246.206,230.693 249.822,232.134 C230.617,223.762 213.109,211.495 197.777,197.233 C200.736,197.19 203.803,197.197 206.599,196.077 C208.431,195.101 208.346,191.877 206.349,191.121 C193.363,183.633 182.851,172.194 175.791,159.03 C181.183,160.37 186.681,161.775 192.293,161.426 C194.661,161.469 195.602,157.996 193.748,156.655 C186.417,149.11 181.075,139.604 179.1,129.228 z" fill="#FBFBFB"/>
    <path d="M273.199,148.497 C270.766,146.458 272.364,141.686 275.652,141.928 C277.47,141.543 278.547,143.191 279.595,144.347 C279.595,145.017 279.595,146.372 279.595,147.049 C278.383,149.282 275.174,150.437 273.199,148.497 z" fill="#FBFBFB"/>
    <path d="M370.906,142.235 C373.523,140.895 376.853,143.041 376.561,145.993 C376.54,149.374 371.74,150.679 369.736,148.19 C368.06,146.408 368.809,143.333 370.906,142.235 z" fill="#FBFBFB"/>
    <path d="M317.356,148.34 C323.382,146.137 330.834,146.472 335.955,150.665 C338.686,152.79 340.091,156.049 342.137,158.751 C343.614,160.691 345.218,162.545 346.48,164.635 C336.525,161.134 325.849,160.749 315.416,161.461 C310.645,162.018 305.953,163.216 301.431,164.828 C303.578,162.146 306.224,159.879 308.05,156.941 C310.31,153.325 313.255,149.88 317.356,148.34 z" fill="#A81600"/>
    <path d="M270.802,153.788 C275.915,151.641 281.592,157.368 279.759,162.445 C278.533,167.217 271.794,168.949 268.378,165.412 C264.526,162.16 266.167,155.407 270.802,153.788 z" fill="#FBFBFB"/>
    <path d="M372.746,153.881 C377.017,151.998 382.359,155.606 382.331,160.228 C382.644,164.235 378.721,167.766 374.785,167.231 C370.1,167.209 367.133,161.555 369.116,157.482 C369.95,155.977 371.12,154.551 372.746,153.881 z" fill="#FBFBFB"/>
    <path d="M315.416,161.461 C325.849,160.749 336.525,161.134 346.48,164.635 C351.365,166.311 355.823,169.121 359.545,172.694 C362.576,175.646 365.943,178.42 367.925,182.242 C371.754,189.202 372.339,197.432 371.526,205.191 C370.128,212.736 364.473,218.713 358.14,222.642 C347.957,228.775 336.183,232.433 324.266,232.547 C311.836,232.234 299.413,228.582 288.973,221.8 C282.969,217.835 277.827,211.788 276.864,204.449 C276.144,195.77 276.914,186.215 282.612,179.198 C287.775,173.171 293.858,167.573 301.431,164.828 C305.953,163.216 310.645,162.018 315.416,161.461 z" fill="#080000"/>
    <path d="M312.956,164.614 C324.373,163.095 336.326,163.708 347.172,167.83 C353.213,170.034 357.976,174.584 362.327,179.154 C368.039,185.373 369.651,194.245 369.172,202.431 C368.545,210.376 362.768,216.787 356.179,220.702 C348.17,225.401 339.171,228.482 329.928,229.502 C317.206,230.685 304.277,227.484 293.173,221.28 C286.827,217.657 280.922,212.038 279.659,204.535 C278.911,197.197 279.481,189.316 283.411,182.884 C285.899,179.048 289.287,175.903 292.767,172.978 C298.379,168.087 305.753,165.855 312.956,164.614 z" fill="#FBFBFB"/>
    <path d="M309.369,178.905 C319.289,176.266 329.964,176.273 339.827,179.162 C343.5,180.338 347.893,182.962 347.579,187.406 C347.101,191.228 344.855,194.708 342.073,197.304 C337.637,201.312 331.59,202.681 325.828,203.444 C326.17,206.51 327.026,209.841 329.601,211.809 C332.403,213.813 336.233,214.654 339.535,213.549 C341.638,212.886 342.423,210.703 343.051,208.814 C343.136,207.459 345.596,207.188 345.532,208.807 C345.582,212.201 343.171,215.503 339.841,216.331 C334.001,217.878 327.233,215.361 324.359,209.905 C321.642,215.638 314.411,217.885 308.585,216.245 C305.233,215.339 303.243,211.895 303.107,208.593 C303.636,207.452 305.396,207.295 305.675,208.693 C306.438,210.597 307.051,213.036 309.341,213.599 C313.284,214.754 318.112,213.585 320.701,210.248 C322.277,208.358 322.734,205.862 323.189,203.515 C317.499,203.23 311.551,201.847 307.101,198.095 C303.899,195.379 301.531,191.541 300.818,187.384 C300.676,182.685 305.44,180.039 309.369,178.905 z" fill="#010101"/>
    <path d="M320.223,179.889 C325.943,179.454 331.712,179.975 337.296,181.28 C339.998,182 342.929,183.205 344.42,185.73 C345.368,188.033 343.849,190.415 342.68,192.341 C338.771,198.053 331.555,200.25 324.959,200.663 C317.456,201.048 308.87,198.36 305.126,191.371 C303.863,189.331 302.844,186.314 304.897,184.411 C309.084,180.795 314.975,180.488 320.223,179.889 z" fill="#2D2D2D"/>
    <path d="M361.549,246.289 C373.088,244.114 384.085,239.885 394.988,235.642 C395.993,236.27 397.013,236.919 398.019,237.568 C390.303,240.342 382.701,243.473 374.835,245.84 C368.966,251.759 361.934,256.387 354.967,260.895 C354.439,260.174 353.897,259.447 353.377,258.734 C358.611,255.467 363.624,251.859 368.445,248.015 C362.462,248.621 356.636,250.262 350.653,250.918 C325.364,254.02 299.314,253.207 274.725,246.125 L274.225,245.983 C274.482,245.69 274.989,245.113 275.245,244.82 C274.083,243.644 273.013,242.395 272.065,241.055 C272.393,241.198 273.056,241.49 273.391,241.639 C274.782,242.695 276.186,243.844 277.955,244.214 C288.888,246.967 300.07,249.049 311.365,249.278 C318.753,249.392 326.142,249.334 333.537,249.306 C342.95,249.348 352.321,248.073 361.549,246.289 z" fill="#100000"/>
    <path d="M374.835,245.84 C382.701,243.473 390.303,240.342 398.019,237.568 C399.346,239.55 400.978,241.29 402.648,242.994 C419.727,261.9 434.218,283.323 444.117,306.856 C454.079,330.554 459.349,356.298 458.835,382.035 C459.228,389.673 457.502,397.197 457.73,404.834 C457.352,417.592 460.076,430.5 466.039,441.817 C468.384,446.553 471.9,450.56 474.396,455.203 C471.088,455.367 467.422,455.367 464.754,457.628 C461.631,459.945 459.962,463.697 459.727,467.519 C456.939,466.335 454.271,464.559 451.176,464.346 C444.587,463.733 438.533,469.316 437.677,475.713 C433.105,471.406 426.281,470.586 420.461,472.504 L420.112,472.583 C415.534,462.22 412.838,451.103 411.433,439.885 C410.877,435.927 410.842,431.919 410.114,427.997 C409.637,427.576 409.172,427.169 408.717,426.77 C407.797,420.695 406.655,414.654 404.858,408.771 C403.924,408.835 402.654,408.421 402.377,409.684 C403.796,415.431 405.671,421.194 405.4,427.199 C393.961,427.818 382.473,427.812 371.034,427.219 C358.298,425.515 345.632,422.962 333.409,418.955 C330.2,417.664 327.433,420.202 325.058,421.992 C324.402,422.506 323.753,423.034 323.125,423.575 C322.634,423.611 321.656,423.675 321.164,423.711 C319.153,425.922 317.17,428.332 316.358,431.278 C314.668,438.666 313.74,446.225 311.83,453.556 C311.601,454.14 311.387,454.74 311.187,455.353 C306.003,454.44 300.704,456.815 297.745,461.115 C296.504,457.379 293.652,454.19 289.9,452.893 C285.144,451.288 279.667,453.05 276.372,456.744 C274.917,454.205 273.013,451.745 270.189,450.675 C267.358,449.27 264.156,449.484 261.097,449.64 C261.375,440.997 262.815,432.326 265.639,424.139 C267.258,419.475 269.597,415.004 272.849,411.26 C274.61,409.135 276.864,407.024 276.857,404.042 C285.279,393.36 292.083,381.365 296.783,368.592 C300.826,357.297 303.7,345.551 305.154,333.627 C306.837,319.236 305.981,304.417 301.617,290.554 C298.815,280.863 294.458,271.649 289.002,263.176 C288.381,261.815 286.905,261.686 285.593,261.579 C286.492,265.081 288.838,267.897 290.471,271.056 C295.791,280.769 299.627,291.324 301.638,302.22 C302.473,306.343 300.968,310.386 299.884,314.309 C296.404,326.325 291.526,338.027 284.573,348.468 C282.185,346.685 279.567,344.895 276.486,344.738 C273.819,344.745 271.387,346.015 269.012,347.063 C268.67,343.283 268.477,339.14 266.06,336.024 C263.6,333.014 259.299,332.572 255.713,333.256 C252.888,333.906 250.714,335.96 248.974,338.156 C248.695,334.946 248.246,331.474 246.071,328.935 C244.58,327.523 242.277,327.851 240.409,327.544 C246.998,317.033 253.608,306.45 258.693,295.104 C261.496,289.013 263.927,282.759 266.338,276.505 C267.222,275.75 268.385,275.121 268.72,273.916 C271.587,264.866 273.398,255.517 274.725,246.125 C299.314,253.207 325.364,254.02 350.653,250.918 C356.636,250.262 362.462,248.621 368.445,248.015 C363.624,251.859 358.611,255.467 353.377,258.734 C343.093,265.202 331.94,270.286 320.323,273.845 C315.109,275.421 310.068,278.502 307.479,283.444 C304.712,288.243 304.955,293.976 305.29,299.318 C305.646,304.831 307.893,310.115 311.18,314.515 C315.238,319.949 321.842,323.073 328.481,323.858 C334.785,324.399 341.203,324.143 347.336,322.509 C360.665,318.702 373.117,311.948 383.55,302.813 C392.485,295.097 399.895,285.776 406.392,275.956 C408.346,272.797 410.585,269.751 411.776,266.201 C410.906,266.121 410.042,266.057 409.18,266.001 C401.678,279.101 392.614,291.474 381.068,301.315 C376.661,305.038 371.947,308.404 366.969,311.328 C366.462,309.43 365.999,307.484 364.973,305.794 C363.831,303.12 360.972,302.264 358.404,301.615 C360.537,297.257 361.078,291.188 357.064,287.723 C354.975,285.676 351.964,285.241 349.24,284.628 C351.166,281.248 351.964,277.019 350.168,273.41 C348.934,270.394 346.089,268.39 342.972,267.669 C347.08,265.616 351.052,263.298 354.967,260.895 C361.934,256.387 368.966,251.759 374.835,245.84 z" fill="#D24300"/>
    <path d="M128.075,248.6 C136.162,248.115 144.234,247.209 152.35,247.608 C149.854,250.326 147.166,252.872 144.855,255.752 C136.611,266.307 132.247,279.308 129.587,292.28 C128.04,300.46 126.699,308.782 127.04,317.139 C127.747,329.933 130.221,342.827 135.998,354.359 C138.922,360.092 142.766,365.333 147.272,369.927 C147.487,370.162 147.922,370.639 148.136,370.875 C140.491,371.117 132.825,371.41 125.236,372.444 C123.376,372.693 121.6,371.944 119.945,371.196 C109.683,366.267 101.432,357.846 95.92,347.955 C89.287,335.81 85.572,322.246 83.889,308.56 C81.999,291.118 85.201,272.12 97.018,258.534 C99.193,256.187 101.318,253.628 104.128,252.038 C111.951,250.026 120.073,249.513 128.075,248.6 z" fill="#A71400"/>
    <path d="M146.845,257.714 C149.676,253.734 153.356,250.468 157.235,247.538 C173.103,247.737 189.02,249.27 204.502,252.872 C194.097,257.607 185.989,266.4 181.139,276.648 C175.264,288.35 173.095,301.458 171.462,314.33 C169.379,332.857 171.099,352.511 180.277,369.071 C180.391,370.218 180.483,371.374 180.576,372.537 C171.412,370.989 162.041,370.896 152.764,370.967 C152.272,370.532 151.787,370.097 151.309,369.669 C141.881,361.468 135.962,349.901 132.953,337.906 C131.491,331.809 130.293,325.598 130.314,319.308 C130.329,312.483 129.95,305.587 131.249,298.847 C133.616,284.314 137.909,269.645 146.845,257.714 z" fill="#D24300"/>
    <path d="M84.759,257.364 C89.024,256.038 93.231,254.412 97.674,253.806 C97.054,254.469 96.433,255.125 95.819,255.802 C88.046,263.976 83.418,274.78 81.678,285.847 C79.097,301.458 81.393,317.504 86.186,332.465 C90.778,346.685 98.465,360.691 111.088,369.263 C113.156,370.668 115.374,371.845 117.477,373.192 C115.146,373.976 112.692,374.262 110.267,374.576 C101.282,375.995 92.247,377.371 83.133,377.556 C79.782,377.892 77.157,375.446 74.44,373.906 C65.312,367.395 58.209,358.266 53.801,347.983 C50.714,340.666 47.961,333 47.754,324.977 C47.54,319.514 47.583,314.044 47.59,308.575 C47.441,297.871 49.395,287.031 53.965,277.311 C56.29,273.004 58.658,267.983 63.479,266.015 C70.361,262.649 77.457,259.703 84.759,257.364 z" fill="#D24300"/>
    <path d="M201.265,257.885 C204.039,256.373 206.863,254.69 210.014,254.148 C222.979,257.257 235.623,261.729 247.739,267.313 C245.714,268.361 243.66,269.324 241.678,270.436 C225.012,279.964 215.62,298.334 211.54,316.498 C206.685,335.303 204.324,355.67 210.592,374.433 C210.913,375.503 211.219,376.58 211.519,377.664 C206.677,377.179 202.013,375.71 197.22,374.932 C193.476,374.091 189.612,373.956 185.911,372.936 C185.09,371.502 184.242,370.105 183.408,368.692 C177.089,357.874 173.815,345.315 173.887,332.8 C173.837,324.728 173.68,316.598 175.106,308.618 C176.298,299.511 178.437,290.518 181.767,281.946 C185.803,272.326 192.087,263.212 201.265,257.885 z" fill="#A71400"/>
    <path d="M81.678,285.847 C83.418,274.78 88.046,263.976 95.819,255.802 C96.219,256.708 96.619,257.621 97.018,258.534 C85.201,272.12 81.999,291.118 83.889,308.56 C85.572,322.246 89.287,335.81 95.92,347.955 C101.432,357.846 109.683,366.267 119.945,371.196 C116.964,371.681 114.96,368.971 112.364,368.079 C112.043,368.379 111.409,368.971 111.088,369.263 C98.465,360.691 90.778,346.685 86.186,332.465 C81.393,317.504 79.097,301.458 81.678,285.847 z" fill="#0E0000"/>
    <path d="M129.587,292.28 C132.247,279.308 136.611,266.307 144.855,255.752 C145.511,256.402 146.174,257.057 146.845,257.714 C137.909,269.645 133.616,284.314 131.249,298.847 C129.95,305.587 130.329,312.483 130.314,319.308 C130.293,325.598 131.491,331.809 132.953,337.906 C135.962,349.901 141.881,361.468 151.309,369.669 C149.961,369.434 148.421,368.764 147.272,369.927 C142.766,365.333 138.922,360.092 135.998,354.359 C130.221,342.827 127.747,329.933 127.04,317.139 C126.699,308.782 128.04,300.46 129.587,292.28 z" fill="#100000"/>
    <path d="M320.323,273.845 C331.94,270.286 343.093,265.202 353.377,258.734 C353.897,259.447 354.44,260.174 354.967,260.895 C351.052,263.298 347.08,265.616 342.972,267.669 C335.755,271.164 328.317,274.173 320.665,276.57 C315.559,278.174 310.866,281.847 309.09,287.031 C307.372,291.88 307.721,297.207 308.549,302.206 C310.01,310.686 316.6,318.153 325.015,320.249 C332.411,322.096 340.255,321.404 347.607,319.664 C354.368,317.703 360.85,314.8 366.969,311.328 C371.947,308.404 376.661,305.038 381.068,301.315 C381.888,301.807 382.716,302.314 383.55,302.813 C373.117,311.948 360.665,318.702 347.336,322.509 C341.203,324.143 334.785,324.399 328.481,323.858 C321.842,323.073 315.238,319.949 311.18,314.515 C307.893,310.115 305.646,304.831 305.29,299.318 C304.955,293.977 304.712,288.243 307.479,283.444 C310.068,278.502 315.11,275.421 320.323,273.845 z" fill="#090000"/>
    <path d="M285.593,261.579 C286.905,261.686 288.381,261.815 289.002,263.176 C294.458,271.649 298.815,280.863 301.617,290.554 C305.981,304.417 306.837,319.236 305.154,333.627 C303.7,345.551 300.826,357.297 296.782,368.592 C292.083,381.365 285.279,393.36 276.857,404.042 C276.18,403.508 275.502,402.987 274.825,402.474 C282.812,391.833 289.672,380.274 294.165,367.708 C300.155,350.957 304.056,333.106 302.901,315.235 C300.89,319.921 299.571,324.863 297.595,329.562 C292.524,341.95 285.493,353.617 276.464,363.529 C270.132,370.618 260.733,374.654 251.263,374.733 C249.786,379.718 248.866,384.902 248.974,390.115 C248.489,389.474 248.004,388.831 247.525,388.204 C247.04,388.51 246.556,388.831 246.078,389.159 C246.384,384.303 247.433,379.54 247.839,374.697 C240.073,374.525 231.986,373.256 225.347,368.971 C221.389,366.475 218.679,361.811 219.178,357.069 C219.742,352.832 221.325,348.682 224.027,345.351 C236.793,329.049 248.168,311.577 256.875,292.757 C257.032,293.136 257.346,293.892 257.502,294.269 C257.773,294.362 258.308,294.562 258.579,294.654 L258.693,295.104 C253.608,306.45 246.998,317.033 240.409,327.544 C235.766,334.248 231.066,340.923 226.053,347.355 C223.307,350.614 221.746,354.936 222.024,359.201 C222.323,363.258 225.661,366.211 229.056,367.965 C236.194,371.474 244.352,372.158 252.203,371.901 C260.291,371.702 268.2,368.157 273.783,362.317 C277.805,358.053 281.443,353.417 284.573,348.468 C291.526,338.027 296.404,326.325 299.884,314.309 C300.968,310.386 302.473,306.343 301.638,302.22 C299.627,291.324 295.791,280.769 290.471,271.056 C288.838,267.897 286.492,265.081 285.593,261.579 z" fill="#0E0000"/>
    <path d="M409.18,266.001 C410.042,266.057 410.906,266.121 411.776,266.201 C410.585,269.751 408.346,272.797 406.392,275.956 C399.895,285.776 392.485,295.097 383.55,302.813 C382.716,302.314 381.888,301.807 381.068,301.315 C392.614,291.474 401.678,279.101 409.18,266.001 z" fill="#100000"/>
    <path d="M320.665,276.57 C328.317,274.173 335.755,271.164 342.972,267.669 C346.089,268.39 348.934,270.394 350.168,273.41 C351.964,277.019 351.166,281.248 349.24,284.628 C351.964,285.241 354.974,285.676 357.063,287.723 C358.418,290.404 359.845,293.335 359.417,296.43 C359.168,298.655 357.755,300.488 356.528,302.278 C359.709,302.328 362.733,303.519 364.973,305.794 C365.999,307.484 366.462,309.43 366.969,311.328 C360.85,314.8 354.368,317.703 347.607,319.664 C340.255,321.404 332.411,322.096 325.015,320.249 C316.6,318.153 310.01,310.686 308.549,302.206 C307.721,297.207 307.372,291.88 309.09,287.031 C310.866,281.847 315.559,278.174 320.665,276.57 z" fill="#FBFBFB"/>
    <path d="M244.759,271.941 C246.898,270.907 248.98,269.616 251.305,269.074 C255.484,270.735 259.264,273.26 263.386,275.057 C263.265,276.263 263.171,277.496 262.722,278.637 C260.947,283.415 259,288.129 256.875,292.757 C248.168,311.577 236.793,329.049 224.027,345.351 C221.325,348.682 219.742,352.832 219.178,357.069 C218.679,361.811 221.389,366.475 225.347,368.971 C231.986,373.256 240.073,374.526 247.839,374.697 C247.433,379.54 246.384,384.303 246.078,389.159 C242.241,388.04 238.625,386.299 234.831,385.038 C228.307,382.641 221.596,380.809 214.978,378.698 C214.464,377.229 213.901,375.788 213.395,374.326 C208.289,359.137 208.809,342.585 211.897,327.031 C214.835,313.966 218.137,300.538 225.889,289.378 C230.66,282.16 237.15,276.077 244.759,271.941 z" fill="#D24300"/>
    <path d="M211.54,316.498 C215.62,298.334 225.012,279.964 241.678,270.436 C241.742,270.785 241.885,271.477 241.956,271.827 C242.89,271.863 243.817,271.891 244.759,271.941 C237.15,276.077 230.66,282.16 225.889,289.378 C218.137,300.538 214.835,313.966 211.897,327.031 C208.809,342.585 208.289,359.137 213.395,374.326 C211.933,373.685 211.612,372.108 211.07,370.789 C210.92,372.001 210.756,373.214 210.592,374.433 C204.324,355.67 206.685,335.303 211.54,316.498 z" fill="#0E0000"/>
    <path d="M39.282,282.539 C43.49,278.552 47.961,274.594 53.246,272.12 C52.49,274.202 51.462,276.177 50.507,278.181 C45.008,290.832 44.024,304.938 44.452,318.573 C44.873,324.036 44.944,329.562 46.214,334.926 C50.107,350.108 57.717,364.998 70.518,374.533 C71.637,375.232 72.386,376.266 72.721,377.556 C60.448,377.592 47.64,375.211 37.393,368.093 C33.306,364.806 29.348,361.062 27.052,356.263 C24.456,351.449 23.322,346.057 22.167,340.766 C21.147,336.059 21.311,331.21 21.225,326.425 C21.282,321.889 21.14,317.297 22.081,312.832 C24.591,301.308 30.653,290.589 39.282,282.539 z" fill="#A71400"/>
    <path d="M50.507,278.181 C51.712,278.145 52.853,277.753 53.965,277.311 C49.395,287.031 47.441,297.871 47.59,308.575 C47.583,314.044 47.54,319.514 47.754,324.977 C47.961,333 50.714,340.666 53.801,347.983 C58.209,358.266 65.312,367.395 74.44,373.906 C73.142,373.884 71.929,373.471 70.767,372.957 C70.703,373.349 70.582,374.141 70.518,374.533 C57.717,364.998 50.107,350.108 46.214,334.926 C44.944,329.562 44.873,324.036 44.452,318.573 C44.024,304.938 45.008,290.832 50.507,278.181 z" fill="#0F0000"/>
    <path d="M181.139,276.648 C181.375,278.41 181.503,280.185 181.767,281.946 C178.437,290.518 176.298,299.511 175.106,308.618 C173.68,316.598 173.837,324.728 173.887,332.8 C173.815,345.315 177.089,357.874 183.408,368.692 C183.023,368.75 182.252,368.871 181.867,368.935 C182.045,369.847 182.217,370.753 182.402,371.687 L181.503,371.959 C181.161,370.96 180.854,369.955 180.277,369.071 C171.099,352.511 169.379,332.857 171.462,314.33 C173.095,301.458 175.264,288.35 181.139,276.648 z" fill="#0F0000"/>
    <path d="M357.063,287.723 C361.078,291.188 360.537,297.257 358.404,301.615 C360.972,302.264 363.831,303.12 364.973,305.794 C362.733,303.519 359.709,302.328 356.528,302.278 C357.755,300.488 359.168,298.655 359.417,296.43 C359.845,293.335 358.418,290.404 357.063,287.723 z" fill="#D3835C"/>
    <path d="M297.595,329.562 C299.571,324.863 300.89,319.921 302.901,315.235 C304.056,333.106 300.155,350.957 294.165,367.708 C289.672,380.274 282.812,391.834 274.825,402.474 C271.309,401.347 268.264,399.186 264.905,397.717 C260.283,395.335 255.462,393.389 250.706,391.306 C250.178,390.893 249.123,390.793 248.974,390.115 C248.866,384.902 249.786,379.717 251.263,374.733 C260.733,374.654 270.132,370.618 276.465,363.529 C285.493,353.617 292.524,341.95 297.595,329.562 z" fill="#A71400"/>
    <path d="M226.053,347.355 C231.066,340.923 235.766,334.248 240.409,327.544 C242.277,327.851 244.58,327.523 246.071,328.935 C248.246,331.474 248.695,334.946 248.974,338.156 C250.714,335.96 252.888,333.906 255.713,333.257 C259.299,332.572 263.6,333.014 266.06,336.024 C268.477,339.14 268.67,343.283 269.012,347.063 C271.387,346.015 273.819,344.746 276.486,344.738 C279.567,344.895 282.184,346.685 284.573,348.468 C281.443,353.417 277.805,358.053 273.783,362.317 C268.2,368.157 260.291,371.702 252.203,371.902 C244.352,372.158 236.194,371.474 229.056,367.965 C225.661,366.211 222.323,363.258 222.024,359.201 C221.746,354.936 223.307,350.615 226.053,347.355 z" fill="#FBFBFB"/>
    <path d="M325.058,421.992 C327.433,420.202 330.2,417.664 333.409,418.955 C345.632,422.962 358.298,425.515 371.034,427.219 C375.007,428.004 379.056,427.569 383.072,427.654 L383.107,428.646 C381.018,428.674 378.936,428.696 376.861,428.703 C376.753,428.953 376.546,429.444 376.446,429.687 C375.149,429.859 373.851,430.051 372.553,430.108 C364.38,429.608 356.436,427.548 348.378,426.307 C349.084,428.924 350.089,431.477 351.63,433.731 C350.766,434.244 349.918,434.786 349.07,435.321 C347.465,432.062 346.067,428.703 345.111,425.194 C340.926,424.096 336.811,422.741 332.632,421.65 C329.786,420.787 327.747,423.476 325.871,425.137 L325.607,425.394 C325.685,424.218 325.843,422.984 325.058,421.992 z" fill="#0D0000"/>
    <path d="M325.871,425.137 C327.747,423.476 329.786,420.787 332.632,421.65 C336.811,422.741 340.926,424.096 345.111,425.194 C346.067,428.703 347.465,432.062 349.07,435.321 C340.854,433.217 333.002,429.716 325.871,425.137 z" fill="#A51603"/>
    <path d="M348.378,426.307 C356.436,427.548 364.38,429.609 372.553,430.108 C380.954,431.234 389.426,430.785 397.877,430.899 C389.276,433.852 380.475,436.99 371.255,436.89 C365.514,436.832 359.738,437.139 354.033,436.433 C353.02,435.734 352.307,434.715 351.63,433.731 C350.089,431.477 349.084,428.924 348.378,426.307 z" fill="#D14302"/>
    <path d="M261.097,449.641 C264.156,449.484 267.358,449.27 270.189,450.675 C273.013,451.745 274.917,454.205 276.372,456.744 C279.667,453.05 285.143,451.288 289.9,452.893 C293.652,454.19 296.504,457.379 297.745,461.115 C300.704,456.815 306.003,454.441 311.187,455.353 C311.387,454.74 311.601,454.14 311.83,453.556 C311.109,459.283 309.768,464.93 308.635,470.586 C306.502,474.622 302.637,477.51 298.565,479.4 C289.166,483.451 278.14,482.623 268.912,478.494 C264.562,476.576 260.968,472.583 260.612,467.698 C260.283,461.679 260.526,455.638 261.097,449.641 z" fill="#FBFBFB"/>
    <path d="M474.396,455.203 C478.739,462.114 480.829,470.977 478.026,478.872 C476.835,482.081 475.259,485.355 472.692,487.686 C464.305,493.17 453.794,495.403 443.91,493.641 C440.515,493.021 436.927,492.422 434.133,490.254 C427.992,485.847 423.193,479.536 420.461,472.504 C426.281,470.586 433.105,471.406 437.677,475.713 C438.532,469.316 444.587,463.733 451.176,464.346 C454.271,464.559 456.939,466.335 459.727,467.519 C459.962,463.697 461.631,459.945 464.754,457.628 C467.422,455.367 471.088,455.367 474.396,455.203 z" fill="#FBFBFB"/>
  </g>
</svg>
